<svg width="214" height="144" viewBox="0 0 214 144" fill="none" xmlns="http://www.w3.org/2000/svg">
<path d="M39.5773 0.0530821C64.6425 -0.913418 89.389 11.3598 101.779 33.4768C102.874 35.4316 102.453 56.1198 102.454 60.1658L102.449 128.715C102.448 132.781 102.624 139.501 102.152 143.329C99.4933 142.047 93.0515 136.816 89.843 134.683C74.1168 124.449 55.7483 119.021 36.9855 119.063C31.2898 119.052 25.6778 119.613 20.0155 120.136C19.5123 89.2113 20.2545 58.0986 19.947 27.1566C19.8658 18.9746 19.8163 10.4708 20.0233 2.31158C25.8845 0.821081 33.5188 0.268332 39.5773 0.0530821Z" fill="#AF00AC"/>
<path d="M165.498 0.337078C174.559 -0.593172 184.49 0.605826 193.395 2.30558C193.488 7.73783 193.5 13.2846 193.438 18.7221C193.055 52.4711 193.98 86.4413 193.365 120.169C170.02 116.868 149.057 120.398 128.42 131.722C125.181 133.559 122.051 135.581 119.045 137.779C116.488 139.68 114.053 141.787 111.359 143.472C111.234 142.873 111.137 142.268 111.068 141.66C110.657 137.873 110.955 126.805 110.955 122.515L110.94 50.6896C110.932 45.9788 110.727 39.5208 111.204 34.9113C111.444 32.5946 116.566 26.0473 118.274 24.0006C130.702 9.10958 146.498 2.12983 165.498 0.337078Z" fill="#AF00AC"/>
<path d="M202.103 9.53058C205.84 9.85008 209.548 10.4423 213.2 11.3031C213.448 27.2798 213.233 43.8496 213.233 59.8653L213.2 142.493C206.863 141.936 200.258 140.786 193.808 140.191C177.245 138.663 159.861 137.976 143.329 140.038C141.482 140.2 132.174 142.136 131.525 140.626C132.256 139.169 134.145 138.26 135.556 137.52C153.052 128.337 173.516 125.406 192.92 128.963C197.035 129.717 199.183 130.65 201.745 126.868C202.06 123.851 201.933 119.451 201.928 116.314L201.913 21.9993C201.913 18.0581 201.81 13.4143 202.103 9.53058Z" fill="#AF00AC"/>
<path d="M10.9903 9.59533C11.7178 10.0913 11.4521 19.2336 11.4528 20.7736L11.4553 100.828L11.4333 116.05C11.4298 119.384 11.2165 124.419 11.9138 127.566C13.5645 129.437 15.322 129.899 17.709 129.415C38.5675 125.186 60.7003 127.941 79.3585 138.413C80.113 138.837 81.3785 139.668 81.5948 140.552L81.3075 140.906C79.2845 141.566 73.5845 140.427 71.07 140.115C46.7505 136.964 24.2068 139.636 0.200046 142.518C-0.380704 111.515 0.525048 80.1563 0.158298 49.1168C0.0115484 36.6948 -0.0704503 23.6418 0.2393 11.2501C3.77055 10.4328 7.37005 9.80733 10.9903 9.59533Z" fill="#AF00AC"/>
</svg>
